M48
;GenerationSoftware,Autodesk,EAGLE,9.5.2*%
;CreationDate,2021-01-10T22:01:47Z*%
FMAT,2
ICI,OFF
METRIC,TZ,000.000
T7C0.381
T6C0.508
T5C0.650
T4C1.016
T3C1.270
T2C3.048
T1C3.302
%
G90
M71
T1
X82931Y77216
X5207Y121412
X62865Y77216
X62865Y121412
X25273Y77216
X5207Y77216
X82931Y121412
X25273Y121412
X82931Y33020
X62865Y33020
X5207Y33020
X25273Y33020
T2
X112268Y82296
X112268Y46736
X60198Y46736
X60198Y2540
X54610Y82296
X54610Y46736
X2540Y46736
X112268Y38100
X112268Y126492
X112268Y90932
X60198Y90932
X112268Y2540
X54610Y126492
X54610Y90932
X2540Y90932
X54610Y38100
X54610Y2540
X2540Y2540
T3
X17272Y21971
X21336Y19685
X17272Y19685
X13208Y19685
X9144Y19685
X13208Y21971
X74930Y108077
X17272Y108077
X13208Y108077
X78994Y110363
X74930Y110363
X70866Y110363
X78994Y108077
X21336Y21971
X70866Y108077
X66802Y108077
X9144Y108077
X21336Y110363
X17272Y110363
X13208Y110363
X21336Y108077
X70866Y63881
X78994Y66167
X74930Y66167
X70866Y66167
X78994Y63881
X74930Y63881
X66802Y63881
X21336Y66167
X17272Y66167
X13208Y66167
X21336Y63881
X17272Y63881
X13208Y63881
X9144Y63881
X78994Y21971
X74930Y21971
X70866Y21971
X78994Y19685
X74930Y19685
X70866Y19685
X66802Y19685
T4
X85598Y92202
X88138Y89662
X88138Y92202
X90678Y89662
X90678Y92202
X93218Y89662
X93218Y92202
X95758Y89662
X40640Y89662
X95758Y92202
X98298Y89662
X98298Y92202
X50800Y89662
X48260Y89662
X45720Y89662
X43180Y89662
X17780Y89662
X20320Y89662
X20320Y92202
X22860Y89662
X22860Y92202
X25400Y89662
X25400Y92202
X27940Y89662
X27940Y92202
X30480Y89662
X30480Y92202
X33020Y89662
X33020Y92202
X35560Y89662
X35560Y92202
X38100Y89662
X38100Y92202
X40640Y92202
X108458Y45466
X105918Y45466
X17780Y92202
X100838Y45466
X75438Y45466
X75438Y48006
X77978Y45466
X77978Y48006
X80518Y45466
X80518Y48006
X83058Y45466
X83058Y48006
X85598Y45466
X85598Y48006
X88138Y45466
X88138Y48006
X90678Y45466
X90678Y48006
X93218Y45466
X93218Y48006
X95758Y45466
X95758Y48006
X98298Y45466
X98298Y48006
X35560Y1270
X35560Y3810
X38100Y1270
X38100Y3810
X40640Y1270
X103378Y45466
X40640Y3810
X50800Y45466
X48260Y45466
X45720Y45466
X43180Y45466
X17780Y45466
X17780Y48006
X20320Y45466
X20320Y48006
X22860Y45466
X22860Y48006
X25400Y45466
X25400Y48006
X27940Y45466
X27940Y48006
X30480Y45466
X30480Y48006
X33020Y45466
X33020Y48006
X35560Y45466
X35560Y48006
X38100Y45466
X38100Y48006
X40640Y45466
X40640Y48006
X33020Y3810
X108458Y89662
X105918Y89662
X103378Y89662
X100838Y89662
X75438Y89662
X75438Y92202
X108458Y1270
X105918Y1270
X103378Y1270
X100838Y1270
X75438Y1270
X75438Y3810
X77978Y1270
X77978Y3810
X80518Y1270
X80518Y3810
X83058Y1270
X83058Y3810
X85598Y1270
X85598Y3810
X88138Y1270
X88138Y3810
X90678Y1270
X90678Y3810
X93218Y1270
X93218Y3810
X95758Y1270
X95758Y3810
X98298Y1270
X98298Y3810
X77978Y89662
X77978Y92202
X80518Y89662
X80518Y92202
X17780Y1270
X83058Y89662
X83058Y92202
X85598Y89662
X50800Y1270
X48260Y1270
X45720Y1270
X43180Y1270
X17780Y3810
X20320Y1270
X20320Y3810
X22860Y1270
X22860Y3810
X25400Y1270
X25400Y3810
X27940Y1270
X27940Y3810
X30480Y1270
X30480Y3810
X33020Y1270
T5
X7270Y49101
X13050Y49101
X64928Y49101
X70708Y49101
X7270Y93297
X13050Y93297
X64928Y93297
X70708Y93297
X7270Y4905
X13050Y4905
X64928Y4905
X70708Y4905
T6
X48260Y20320
X105918Y20320
X103378Y15240
X105918Y15240
X103378Y17780
X105918Y17780
X103378Y20320
X45720Y15240
X48260Y15240
X45720Y17780
X48260Y17780
X45720Y20320
X45720Y59436
X48260Y59436
X45720Y61976
X48260Y61976
X45720Y64516
X48260Y64516
X103378Y59436
X105918Y59436
X103378Y61976
X105918Y61976
X103378Y64516
X105918Y64516
X105918Y108712
X45720Y103632
X48260Y103632
X45720Y106172
X48260Y106172
X45720Y108712
X48260Y108712
X103378Y103632
X105918Y103632
X103378Y106172
X105918Y106172
X103378Y108712
T7
X53467Y26924
X36449Y31369
X40132Y27559
X43942Y23241
X10160Y15240
X44958Y23241
X11430Y15240
X7620Y8509
X1270Y17399
X43180Y19050
X13970Y8890
X50546Y16002
X50546Y24892
X30861Y30480
X48641Y31750
X29210Y33020
X32131Y30480
X55499Y30480
X55499Y31750
X62738Y19050
X71628Y97282
X100838Y107442
X89789Y118872
X86868Y121412
X58928Y105791
X65278Y96901
X69088Y103632
X102616Y111633
X67818Y103632
X106299Y120142
X113157Y120142
X101600Y111633
X97790Y115951
X94107Y119761
X111125Y115316
X111125Y106426
X113157Y118872
X88519Y118872
X107188Y105410
X94043Y118427
X108204Y114300
X112014Y114300
X112014Y105410
X108204Y113284
X108204Y104394
X104648Y116332
X102489Y116967
X102362Y113030
X75438Y94742
X77978Y94742
X80518Y94742
X83058Y94742
X85598Y94742
X88138Y94742
X90678Y94742
X93218Y94742
X95758Y94742
X98298Y94742
X95504Y112141
X94107Y114554
X94742Y116078
X92075Y109474
X62738Y107442
X55499Y120142
X55499Y118872
X32131Y118872
X29210Y121412
X48641Y120142
X30861Y118872
X50546Y113284
X50546Y104394
X13970Y97282
X43180Y107442
X1270Y105791
X53467Y115316
X7620Y96901
X11430Y103632
X44958Y111633
X10160Y103632
X43942Y111633
X40132Y115951
X36449Y119761
X53467Y106426
X49530Y105410
X36386Y118427
X50546Y114300
X54356Y114300
X54356Y105410
X46990Y116332
X44831Y116967
X44704Y113030
X17780Y94742
X20320Y94742
X22860Y94742
X25400Y94742
X27940Y94742
X30480Y94742
X33020Y94742
X35560Y94742
X38100Y94742
X40640Y94742
X37846Y112141
X36449Y114554
X37084Y116078
X34417Y109474
X5080Y107442
X113157Y75946
X113157Y74676
X89789Y74676
X86868Y77216
X106299Y75946
X88519Y74676
X108204Y69088
X108204Y60198
X71628Y53086
X100838Y63246
X58928Y61595
X65278Y52705
X69088Y59436
X102616Y67437
X67818Y59436
X101600Y67437
X97790Y71755
X94107Y75565
X111125Y71120
X111125Y62230
X107188Y61214
X94043Y74232
X108204Y70104
X112014Y70104
X112014Y61214
X104648Y72136
X102489Y72771
X102362Y68834
X75438Y50546
X77978Y50546
X80518Y50546
X83058Y50546
X85598Y50546
X88138Y50546
X90678Y50546
X5080Y19050
X34417Y21082
X37084Y27686
X36449Y26162
X37846Y23749
X40640Y6350
X93218Y50546
X95758Y50546
X98298Y50546
X95504Y67945
X94107Y70358
X94742Y71882
X92075Y65278
X62738Y63246
X55499Y75946
X55499Y74676
X32131Y74676
X29210Y77216
X48641Y75946
X30861Y74676
X50546Y69088
X50546Y60198
X13970Y53086
X43180Y63246
X1270Y61595
X7620Y52705
X11430Y59436
X44958Y67437
X10160Y59436
X43942Y67437
X40132Y71755
X36449Y75565
X53467Y71120
X53467Y62230
X49530Y61214
X36386Y74232
X50546Y70104
X38100Y6350
X35560Y6350
X33020Y6350
X30480Y6350
X27940Y6350
X25400Y6350
X54356Y70104
X22860Y6350
X46990Y72136
X44831Y72771
X44704Y68834
X17780Y50546
X20320Y50546
X22860Y50546
X107188Y17018
X25400Y50546
X27940Y50546
X30480Y50546
X33020Y50546
X35560Y50546
X38100Y50546
X40640Y50546
X37846Y67945
X36449Y70358
X37084Y71882
X34417Y65278
X5080Y63246
X113157Y31750
X113157Y30480
X89789Y30480
X86868Y33020
X106299Y31750
X88519Y30480
X108204Y24892
X108204Y16002
X71628Y8890
X100838Y19050
X20320Y6350
X17780Y6350
X44704Y24638
X44831Y28575
X46990Y27940
X54356Y17018
X54356Y61214
X65278Y8509
X69088Y15240
X102616Y23241
X67818Y15240
X101600Y23241
X97790Y27559
X94107Y31369
X111125Y26924
X111125Y18034
X94043Y30035
X108204Y25908
X112014Y25908
X112014Y17018
X104648Y27940
X102489Y28575
X102362Y24638
X75438Y6350
X77978Y6350
X80518Y6350
X83058Y6350
X85598Y6350
X88138Y6350
X90678Y6350
X93218Y6350
X95758Y6350
X98298Y6350
X95504Y23749
X94107Y26162
X94742Y27686
X92075Y21082
X54356Y25908
X50546Y25908
X36386Y30035
X49530Y17018
X53467Y18034
X58928Y17399
M30